# xmcd
#
# Track frame offsets: 
#        150
#        20312
#        37251
#        55588
#        68828
#
# Disc length: 1224 seconds
#
# Revision: 0
# Processed by: cddbd v1.5.2PL0 Copyright (c) Steve Scherf et al.
# Submitted via: ExactAudioCopy v1.0b1
#
DISCID=3b04c605
DTITLE=The Bad Penny Band - The EP!
DYEAR=2012
DGENRE=Rock
TTITLE0=Almost There
TTITLE1=Not a Penny More
TTITLE2=Café
TTITLE3=When Will You Be Mine?
TTITLE4=Maybe Next Time
EXTD=
EXTT0=
EXTT1=
EXTT2=
EXTT3=
EXTT4=
PLAYORDER=
